<svg xmlns="http://www.w3.org/2000/svg" viewBox="0 0 512 512" preserveAspectRatio="xMidYMid meet">
  <g transform="translate(0,512) scale(0.1,-0.1)" fill="#FFFFFF">
    <path d="M643 5106 c-60 -20 -107 -51 -152 -102 -79 -90 -75 -50 -79 -862 l-3 -723 -45 -62 c-62 -84 -158 -282 -189 -392 -43 -151 -58 -272 -51 -435 10 -264 74 -460 224 -686 l59 -89 6 -215 c5 -160 12 -240 27 -312 73 -347 274 -636 575 -826 88 -55 201 -102 409 -169 l201 -65 50 -54 c31 -33 73 -64 110 -81 l60 -28 325 0 325 0 55 26 c98 47 158 121 186 228 13 52 15 101 12 250 -3 176 -5 189 -30 243 -32 69 -96 135 -163 168 l-50 25 -335 0 c-321 0 -337 -1 -381 -21 -26 -12 -64 -38 -86 -58 l-40 -36 -116 39 c-64 22 -144 54 -177 72 -92 49 -190 151 -239 250 -42 84 -50 115 -28 106 124 -48 452 -57 626 -19 191 43 330 104 498 218 147 101 189 118 308 122 132 5 204 -19 347 -115 177 -120 335 -189 528 -230 117 -24 381 -24 502 0 542 109 949 514 1065 1057 25 120 25 392 -1 510 -76 349 -279 648 -574 844 -149 99 -295 162 -482 209 -84 21 -103 21 -1320 25 -1281 4 -1333 2 -1476 -38 l-63 -17 -3 501 c-3 457 -5 505 -22 549 -26 67 -104 149 -168 177 -65 28 -167 35 -225 16z m137 -211 c62 -32 60 -8 60 -592 l0 -532 -32 -17 c-18 -9 -66 -38 -105 -65 l-73 -49 0 598 c0 660 -3 629 64 658 40 17 51 17 86 -1z m3023 -1200 c179 -27 379 -110 524 -217 323 -239 496 -622 453 -1006 -59 -535 -473 -947 -1009 -1003 -260 -27 -512 39 -745 195 -175 118 -273 157 -427 171 -85 7 -201 -11 -293 -45 -33 -13 -107 -55 -165 -94 -134 -91 -179 -116 -266 -151 -348 -139 -732 -98 -1049 113 -91 60 -237 207 -299 299 -318 479 -239 1095 191 1475 154 137 372 237 577 267 33 5 589 9 1235 10 990 1 1190 -1 1273 -14z m-3068 -2230 c54 -36 102 -65 107 -65 4 0 8 -11 8 -23 0 -49 41 -185 80 -264 76 -155 200 -284 350 -366 36 -20 120 -55 188 -78 l122 -41 0 -109 c0 -82 -3 -109 -13 -109 -30 0 -309 100 -382 138 -104 53 -164 96 -254 185 -158 156 -258 346 -296 566 -13 72 -21 231 -12 231 2 0 47 -29 102 -65z m1729 -740 c60 -29 66 -52 66 -253 0 -268 8 -262 -365 -262 -367 0 -358 -6 -363 250 -4 189 4 226 60 260 31 19 50 20 301 20 220 0 275 -3 301 -15z"/>
    <path d="M1265 3474 c-352 -76 -629 -358 -701 -714 -22 -111 -15 -313 15 -415 91 -305 323 -539 628 -632 79 -24 104 -26 243 -27 129 0 168 4 235 22 111 31 203 77 335 167 133 90 192 118 319 151 208 54 474 18 659 -88 31 -18 98 -60 147 -93 172 -117 309 -159 520 -159 115 0 155 4 223 22 323 87 561 323 654 648 33 115 33 344 0 457 -90 311 -331 547 -662 649 l-75 23 -1235 2 c-1070 1 -1244 0 -1305 -13z m2570 -222 c135 -46 223 -99 316 -191 95 -95 144 -174 179 -286 50 -164 34 -329 -47 -495 -38 -80 -60 -109 -132 -181 -142 -141 -286 -202 -481 -203 -168 -1 -271 33 -435 144 -165 111 -304 173 -460 203 -312 62 -602 -1 -871 -189 -155 -107 -247 -145 -396 -160 -135 -14 -313 31 -429 109 -114 76 -221 206 -270 328 -139 354 37 759 391 899 125 50 95 49 1370 47 l1195 -2 70 -23z"/>
  </g>
</svg>
