<?xml version="1.0" standalone="no"?>
<!DOCTYPE svg PUBLIC "-//W3C//DTD SVG 20010904//EN"
 "http://www.w3.org/TR/2001/REC-SVG-20010904/DTD/svg10.dtd">
<svg version="1.0" xmlns="http://www.w3.org/2000/svg"
 width="512.000000pt" height="512.000000pt" viewBox="0 0 512.000000 512.000000"
 preserveAspectRatio="xMidYMid meet">

<g transform="translate(0.000000,512.000000) scale(0.100000,-0.100000)"
fill="#000000" stroke="none">
<path d="M1340 4675 c-84 -23 -209 -89 -268 -140 -154 -137 -240 -361 -213
-557 13 -91 46 -188 92 -264 49 -80 165 -186 255 -230 l74 -37 0 -887 0 -887
-78 -38 c-113 -56 -225 -170 -280 -285 -102 -216 -89 -439 37 -633 86 -132
231 -233 391 -273 95 -24 262 -15 352 18 193 72 340 222 399 408 30 91 37 254
15 340 -29 115 -90 225 -170 304 -58 58 -166 134 -209 149 -14 4 30 109 74
178 76 116 187 204 327 257 66 25 73 26 422 33 258 5 378 11 440 22 327 61
615 244 813 515 63 87 150 262 181 365 34 111 56 243 56 336 l0 76 85 43 c200
103 327 300 342 532 18 300 -194 586 -487 654 -36 9 -103 16 -150 16 -179 0
-318 -58 -446 -185 -94 -93 -154 -201 -180 -325 -58 -274 82 -566 334 -693
l84 -42 -7 -85 c-18 -219 -110 -418 -261 -561 -77 -72 -137 -112 -237 -159
-149 -69 -171 -72 -577 -80 -375 -8 -401 -10 -545 -56 -62 -20 -195 -86 -252
-125 l-43 -30 0 550 0 550 46 20 c68 30 166 103 219 163 55 63 119 188 141
277 22 88 15 252 -14 341 -62 190 -223 350 -412 412 -86 27 -271 34 -350 13z
m208 -417 c66 -16 135 -87 151 -154 24 -98 -20 -193 -110 -238 -88 -43 -176
-30 -244 39 -69 68 -82 156 -39 244 28 56 79 98 136 111 47 11 54 11 106 -2z
m2390 -17 c158 -81 146 -316 -20 -385 -134 -56 -288 47 -288 194 0 165 162
266 308 191z m-2349 -2987 c132 -66 157 -229 51 -334 -105 -106 -268 -81 -334
51 -43 88 -30 176 39 244 68 69 156 83 244 39z"/>
</g>
</svg>
